<svg xmlns="http://www.w3.org/2000/svg" enable-background="new 0 0 50 50" viewBox="0 0 50 50"><path d="M11.77197,15.80762h26.45605c0.55273,0,1-0.44775,1-1V5.40234c0-0.55225-0.44727-1-1-1H11.77197c-0.55273,0-1,0.44775-1,1
		v9.40527C10.77197,15.35986,11.21924,15.80762,11.77197,15.80762z M12.77197,6.40234h24.45605v7.40527H12.77197V6.40234z"/><path d="M39.771,49c1.6543,0,3-1.3457,3-3c0-13.9925,0-26.76404,0-42c0-1.6543-1.3457-3-3-3H10.229c-1.6543,0-3,1.3457-3,3
		c0,15.18533,0,27.95787,0,42c0,1.6543,1.3457,3,3,3H39.771z M39.771,47H26.00049V35.70752H40.771V46
		C40.771,46.55127,40.32275,47,39.771,47z M26.00049,22.41504H40.771v11.29248H26.00049V22.41504z M24.00049,33.70752H9.229
		V22.41504h14.77148V33.70752z M10.229,3H39.771c0.55176,0,1,0.44873,1,1v16.41504H9.229V4C9.229,3.44873,9.67725,3,10.229,3z
		 M9.229,46V35.70752h14.77148V47H10.229C9.67725,47,9.229,46.55127,9.229,46z"/><path d="M13.354 29.06152h2.26074v2.26025c0 .55225.44727 1 1 1s1-.44775 1-1v-2.26025h2.26074c.55273 0 1-.44775 1-1s-.44727-1-1-1h-2.26074v-2.26074c0-.55225-.44727-1-1-1s-1 .44775-1 1v2.26074H13.354c-.55273 0-1 .44775-1 1S12.80127 29.06152 13.354 29.06152zM35.57568 27.06152h-6.52051c-.55273 0-1 .44775-1 1s.44727 1 1 1h6.52051c.55273 0 1-.44775 1-1S36.12842 27.06152 35.57568 27.06152zM36.28271 38.50781c-.39063-.39063-1.02344-.39063-1.41406 0l-1.59863 1.59814-1.59863-1.59863c-.39063-.39063-1.02344-.39063-1.41406 0s-.39063 1.02344 0 1.41406l1.59839 1.59839-1.59937 1.59888c-.39063.39014-.39063 1.02344 0 1.41406.19531.19531.45117.29297.70703.29297s.51172-.09766.70703-.29297l1.59937-1.59888 1.59888 1.59888c.19531.19531.45117.29297.70703.29297s.51172-.09766.70703-.29297c.39063-.39063.39063-1.02344 0-1.41406l-1.59863-1.59863 1.59863-1.59814C36.67334 39.53174 36.67334 38.89844 36.28271 38.50781zM13.354 40.72314h6.52148c.55273 0 1-.44775 1-1s-.44727-1-1-1H13.354c-.55273 0-1 .44775-1 1S12.80127 40.72314 13.354 40.72314zM13.354 44.31689h6.52148c.55273 0 1-.44775 1-1s-.44727-1-1-1H13.354c-.55273 0-1 .44775-1 1S12.80127 44.31689 13.354 44.31689z"/></svg>